<?xml version="1.0" encoding="UTF-8" standalone="no"?>
<svg
   xmlns:dc="http://purl.org/dc/elements/1.1/"
   xmlns:cc="http://creativecommons.org/ns#"
   xmlns:rdf="http://www.w3.org/1999/02/22-rdf-syntax-ns#"
   xmlns:svg="http://www.w3.org/2000/svg"
   xmlns="http://www.w3.org/2000/svg"
   xmlns:xlink="http://www.w3.org/1999/xlink"
   xmlns:sodipodi="http://sodipodi.sourceforge.net/DTD/sodipodi-0.dtd"
   xmlns:inkscape="http://www.inkscape.org/namespaces/inkscape"
   inkscape:version="1.0 (4035a4fb49, 2020-05-01)"
   sodipodi:docname="OpenBMC-Logo2.svg"
   id="svg348"
   version="1.1"
   viewBox="0 0 241.23 240.05">
  <metadata
     id="metadata352">
    <rdf:RDF>
      <cc:Work
         rdf:about="">
        <dc:format>image/svg+xml</dc:format>
        <dc:type
           rdf:resource="http://purl.org/dc/dcmitype/StillImage" />
        <dc:title>Asset 1</dc:title>
      </cc:Work>
    </rdf:RDF>
  </metadata>
  <sodipodi:namedview
     inkscape:current-layer="Layer_1-2"
     inkscape:window-maximized="0"
     inkscape:window-y="23"
     inkscape:window-x="26"
     inkscape:cy="120.025"
     inkscape:cx="120.615"
     inkscape:zoom="4.1991252"
     showguides="false"
     showgrid="false"
     id="namedview350"
     inkscape:window-height="1205"
     inkscape:window-width="1403"
     inkscape:pageshadow="2"
     inkscape:pageopacity="0"
     guidetolerance="10"
     gridtolerance="10"
     objecttolerance="10"
     borderopacity="1"
     bordercolor="#666666"
     pagecolor="#ffffff" />
  <defs
     id="defs320">
    <style
       id="style306">.cls-1{fill:#a6a8ab;}.cls-2{fill:url(#linear-gradient);}.cls-3{fill:url(#linear-gradient-2);}.cls-4{fill:url(#linear-gradient-3);}.cls-5{fill:url(#linear-gradient-4);}.cls-6{fill:#626366;}</style>
    <linearGradient
       gradientUnits="userSpaceOnUse"
       y2="154.54"
       x2="82.9"
       y1="11.55"
       x1="82.9"
       id="linear-gradient">
      <stop
         id="stop308"
         stop-color="#00b0da"
         offset="0" />
      <stop
         id="stop310"
         stop-color="#008abf"
         offset="1" />
    </linearGradient>
    <linearGradient
       gradientTransform="translate(0,40)"
       xlink:href="#linear-gradient"
       y2="158.66"
       x2="81.55"
       y1="27.55"
       x1="81.55"
       id="linear-gradient-2" />
    <linearGradient
       gradientUnits="userSpaceOnUse"
       y2="154.8"
       x2="156.66"
       y1="51.54"
       x1="156.66"
       id="linear-gradient-3">
      <stop
         id="stop314"
         stop-color="#a5d440"
         offset="0" />
      <stop
         id="stop316"
         stop-color="#8cce3f"
         offset="1" />
    </linearGradient>
    <linearGradient
       gradientTransform="translate(0,40)"
       xlink:href="#linear-gradient-3"
       y2="154.8"
       x2="158.41"
       y1="51.54"
       x1="158.41"
       id="linear-gradient-4" />
    <linearGradient
       gradientTransform="translate(0,40)"
       y2="154.8"
       x2="156.66"
       y1="51.54"
       x1="156.66"
       gradientUnits="userSpaceOnUse"
       id="linearGradient354"
       xlink:href="#linear-gradient-3"
       inkscape:collect="always" />
    <linearGradient
       gradientTransform="translate(0,40)"
       y2="154.54"
       x2="82.9"
       y1="11.55"
       x1="82.9"
       gradientUnits="userSpaceOnUse"
       id="linearGradient356"
       xlink:href="#linear-gradient"
       inkscape:collect="always" />
  </defs>
  <title
     id="title322">Asset 1</title>
  <g
     data-name="Layer 2"
     id="Layer_2">
    <g
       data-name="Layer 1"
       id="Layer_1-2">
      <path
         id="path324"
         d="m 241.23,111.77 a 18.66,18.66 0 1 0 -0.24,16 L 237.26,126 a 14.51,14.51 0 1 1 0.21,-12.46 z"
         class="cls-1" />
      <path
         style="fill:url(#linearGradient356)"
         id="path326"
         d="m 65.85,121.86 a 53.68,53.68 0 0 0 11.61,33.41 c -0.1,0.29 -0.15,0.6 -0.22,0.9 a 10.81,10.81 0 0 0 -0.34,2.57 11,11 0 1 0 11,-11 10.75,10.75 0 0 0 -1.2,0.07 c -0.31,0 -0.61,0.08 -0.91,0.13 A 42.82,42.82 0 0 1 99.95,83.86 v 0 -41.79 l -0.77,0.21 q -3.63,0.94 -7.12,2.2 c -1.29,0.47 -2.58,1 -3.84,1.48 v 0 32.23 l -0.13,0.1 a 53.79,53.79 0 0 0 -22.24,43.57 z"
         class="cls-2" />
      <path
         style="fill:url(#linear-gradient-2)"
         id="path328"
         d="M 120.28,136.58 A 14.54,14.54 0 0 1 105.73,122.21 H 93.59 v 0 a 26.29,26.29 0 0 0 21,25.65 v 45.35 A 71.13,71.13 0 0 1 63.9,78.1 c 0.31,0.06 0.63,0.1 1,0.13 0.37,0.03 0.64,0 1,0 a 10.83,10.83 0 1 0 -10.25,-7.41 82.23,82.23 0 0 0 64.18,133.6 c 1.41,0 2.81,-0.06 4.2,-0.14 l 1.63,-0.09 v 0 -68.62 a 14.47,14.47 0 0 1 -5.38,1.01 z"
         class="cls-3" />
      <path
         style="fill:url(#linearGradient354)"
         id="path330"
         d="m 171.95,108.54 a 53.78,53.78 0 0 0 -9.85,-19.71 11.31,11.31 0 0 0 0.32,-1.3 10.78,10.78 0 0 0 0.24,-2.17 11,11 0 1 0 -8.89,10.8 42.83,42.83 0 0 1 -14.17,64.08 V 202 c 1.08,-0.27 2.14,-0.56 3.2,-0.87 a 82.35,82.35 0 0 0 8.53,-3 v -32.22 a 53.91,53.91 0 0 0 20.6,-57.37 z"
         class="cls-4" />
      <path
         style="fill:url(#linear-gradient-4)"
         id="path332"
         d="M 184.63,172.75 A 82.21,82.21 0 0 0 119.79,40 c -1.64,0 -3.26,0.06 -4.87,0.16 h -0.11 v 68.39 0 a 14.53,14.53 0 0 1 5.19,-1.07 h 0.27 a 14.56,14.56 0 0 1 14.6,14.52 c 0,0 0,0.07 0,0.11 0,0.04 0,0.08 0,0.13 h 11.08 A 26.21,26.21 0 0 0 125.81,96.8 V 51.3 A 71.14,71.14 0 0 1 176,165.83 h -0.07 a 11,11 0 0 0 -12.58,10.88 11,11 0 0 0 11,11 v 0 a 11,11 0 0 0 10.54,-14.13 c -0.07,-0.28 -0.16,-0.58 -0.26,-0.83 z"
         class="cls-5" />
      <polygon
         transform="translate(0,-94)"
         id="polygon334"
         points="197.1,204.21 197.1,231.42 201.22,231.42 201.22,195.65 196.53,195.65 182,225.14 167.47,195.65 162.72,195.65 162.72,231.42 166.89,231.42 166.89,204.21 180.33,231.42 183.67,231.42 "
         class="cls-1" />
      <path
         id="path336"
         d="m 119.82,114.4 a 10.6,10.6 0 0 0 -7.9,-3.34 10.15,10.15 0 0 0 -4.16,0.83 15.94,15.94 0 0 0 -3.62,2.24 v -2.7 h -4.23 v 26 h 4.23 v -14.79 a 7.74,7.74 0 0 1 2.08,-5.5 7.48,7.48 0 0 1 10.66,0 7.76,7.76 0 0 1 2.08,5.48 v 14.78 h 4.11 v -15 a 11.12,11.12 0 0 0 -3.24,-8"
         class="cls-6" />
      <path
         id="path338"
         d="m 63.68,130.4 a 12.41,12.41 0 0 1 -4.86,5.17 13.54,13.54 0 0 1 -7,1.85 H 45.54 V 146 h -4 v -34.57 h 10.1 a 13.41,13.41 0 0 1 9.57,3.76 12.73,12.73 0 0 1 2.47,15.21 m -18.14,3.24 h 5.77 a 9.48,9.48 0 0 0 6.74,-2.64 8.59,8.59 0 0 0 2.76,-6.54 8.38,8.38 0 0 0 -2.7,-6.41 9.43,9.43 0 0 0 -6.68,-2.51 h -5.89 z"
         class="cls-6" />
      <path
         id="path340"
         d="m 96.44,125.75 a 4.56,4.56 0 0 0 0.14,-1.36 c 0,-7.38 -6.27,-13.36 -14,-13.36 -7.73,0 -14,6 -14,13.36 0,7.36 6.27,13.36 14,13.36 a 14,14 0 0 0 11.93,-6.52 l -3.25,-2.45 a 9.89,9.89 0 0 1 -8.68,5 9.43,9.43 0 1 1 0,-18.83 9.8,9.8 0 0 1 9.35,6.54 c 0,0.07 0.15,0.63 0.17,0.7 H 76.59 v 3.52 z"
         class="cls-6" />
      <path
         id="path342"
         d="M 33.19,119.53 A 14.53,14.53 0 1 1 18.66,105 14.53,14.53 0 0 1 33.19,119.53 m 4.12,0 a 18.66,18.66 0 1 0 -18.66,18.66 18.66,18.66 0 0 0 18.66,-18.66"
         class="cls-6" />
      <path
         id="path344"
         d="m 154.37,126.69 a 6.77,6.77 0 0 1 -6.75,6.79 H 132.14 V 119.9 h 15.49 a 6.78,6.78 0 0 1 6.75,6.79 m -2.29,-15.93 a 5.08,5.08 0 0 1 -5.05,5.08 H 132.15 V 105.67 H 147 a 5.07,5.07 0 0 1 5.05,5.08 m 0.94,6.7 A 9,9 0 0 0 147.3,101.7 H 128 v 35.75 h 20.14 0.28 v 0 A 10.73,10.73 0 0 0 153,117.46"
         class="cls-1" />
    </g>
  </g>
</svg>
