<svg xmlns="http://www.w3.org/2000/svg" xmlns:xlink="http://www.w3.org/1999/xlink" id="svg348" version="1.1" viewBox="0 0 241.23 240.05">
  <defs id="defs320">
    <linearGradient gradientUnits="userSpaceOnUse" y2="154.54" x2="82.9" y1="11.55" x1="82.9" id="linear-gradient">
      <stop id="stop308" stop-color="#00b0da" offset="0"/>
      <stop id="stop310" stop-color="#008abf" offset="1"/>
    </linearGradient>
    <linearGradient gradientTransform="translate(0 40)" xlink:href="#linear-gradient" y2="158.66" x2="81.55" y1="27.55" x1="81.55" id="linear-gradient-2"/>
    <linearGradient gradientUnits="userSpaceOnUse" y2="154.8" x2="156.66" y1="51.54" x1="156.66" id="linear-gradient-3">
      <stop id="stop314" stop-color="#a5d440" offset="0"/>
      <stop id="stop316" stop-color="#8cce3f" offset="1"/>
    </linearGradient>
    <linearGradient gradientTransform="translate(0 40)" xlink:href="#linear-gradient-3" y2="154.8" x2="158.41" y1="51.54" x1="158.41" id="linear-gradient-4"/>
    <linearGradient gradientTransform="translate(0 40)" y2="154.8" x2="156.66" y1="51.54" x1="156.66" gradientUnits="userSpaceOnUse" id="linearGradient354" xlink:href="#linear-gradient-3"/>
    <linearGradient gradientTransform="translate(0 40)" y2="154.54" x2="82.9" y1="11.55" x1="82.9" gradientUnits="userSpaceOnUse" id="linearGradient356" xlink:href="#linear-gradient"/>
    <style id="style306">
      .cls-1{fill:#a6a8ab}.cls-6{fill:#626366}
    </style>
  </defs>
  <g data-name="Layer 2" id="Layer_2">
    <g data-name="Layer 1" id="Layer_1-2">
      <path id="path324" d="M241.23 111.77a18.66 18.66 0 10-.24 16l-3.73-1.77a14.51 14.51 0 11.21-12.46z" class="cls-1"/>
      <path id="path326" d="M65.85 121.86a53.68 53.68 0 0011.61 33.41c-.1.29-.15.6-.22.9a10.81 10.81 0 00-.34 2.57 11 11 0 1011-11 10.75 10.75 0 00-1.2.07c-.31 0-.61.08-.91.13a42.82 42.82 0 0114.16-64.08V42.07l-.77.21q-3.63.94-7.12 2.2c-1.29.47-2.58 1-3.84 1.48v32.23l-.13.1a53.79 53.79 0 00-22.24 43.57z" fill="url(#linearGradient356)"/>
      <path id="path328" d="M120.28 136.58a14.54 14.54 0 01-14.55-14.37H93.59a26.29 26.29 0 0021 25.65v45.35A71.13 71.13 0 0163.9 78.1c.31.06.63.1 1 .13s.64 0 1 0a10.83 10.83 0 10-10.25-7.41 82.23 82.23 0 0064.18 133.6c1.41 0 2.81-.06 4.2-.14l1.63-.09v-68.62a14.47 14.47 0 01-5.38 1.01z" fill="url(#linear-gradient-2)"/>
      <path id="path330" d="M171.95 108.54a53.78 53.78 0 00-9.85-19.71 11.31 11.31 0 00.32-1.3 10.78 10.78 0 00.24-2.17 11 11 0 10-8.89 10.8 42.83 42.83 0 01-14.17 64.08V202c1.08-.27 2.14-.56 3.2-.87a82.35 82.35 0 008.53-3v-32.22a53.91 53.91 0 0020.6-57.37z" fill="url(#linearGradient354)"/>
      <path id="path332" d="M184.63 172.75A82.21 82.21 0 00119.79 40c-1.64 0-3.26.06-4.87.16h-.11v68.39a14.53 14.53 0 015.19-1.07h.27a14.56 14.56 0 0114.6 14.52v.24h11.08a26.21 26.21 0 00-20.14-25.44V51.3A71.14 71.14 0 01176 165.83h-.07a11 11 0 00-12.58 10.88 11 11 0 0011 11 11 11 0 0010.54-14.13c-.07-.28-.16-.58-.26-.83z" fill="url(#linear-gradient-4)"/>
      <path transform="translate(0 -94)" id="polygon334" class="cls-1" d="M197.1 204.21v27.21h4.12v-35.77h-4.69L182 225.14l-14.53-29.49h-4.75v35.77h4.17v-27.21l13.44 27.21h3.34z"/>
      <path id="path336" d="M119.82 114.4a10.6 10.6 0 00-7.9-3.34 10.15 10.15 0 00-4.16.83 15.94 15.94 0 00-3.62 2.24v-2.7h-4.23v26h4.23v-14.79a7.74 7.74 0 012.08-5.5 7.48 7.48 0 0110.66 0 7.76 7.76 0 012.08 5.48v14.78h4.11v-15a11.12 11.12 0 00-3.24-8" class="cls-6"/>
      <path id="path338" d="M63.68 130.4a12.41 12.41 0 01-4.86 5.17 13.54 13.54 0 01-7 1.85h-6.28V146h-4v-34.57h10.1a13.41 13.41 0 019.57 3.76 12.73 12.73 0 012.47 15.21m-18.14 3.24h5.77a9.48 9.48 0 006.74-2.64 8.59 8.59 0 002.76-6.54 8.38 8.38 0 00-2.7-6.41 9.43 9.43 0 00-6.68-2.51h-5.89z" class="cls-6"/>
      <path id="path340" d="M96.44 125.75a4.56 4.56 0 00.14-1.36c0-7.38-6.27-13.36-14-13.36s-14 6-14 13.36c0 7.36 6.27 13.36 14 13.36a14 14 0 0011.93-6.52l-3.25-2.45a9.89 9.89 0 01-8.68 5 9.43 9.43 0 110-18.83 9.8 9.8 0 019.35 6.54c0 .07.15.63.17.7H76.59v3.52z" class="cls-6"/>
      <path id="path342" d="M33.19 119.53A14.53 14.53 0 1118.66 105a14.53 14.53 0 0114.53 14.53m4.12 0a18.66 18.66 0 10-18.66 18.66 18.66 18.66 0 0018.66-18.66" class="cls-6"/>
      <path id="path344" d="M154.37 126.69a6.77 6.77 0 01-6.75 6.79h-15.48V119.9h15.49a6.78 6.78 0 016.75 6.79m-2.29-15.93a5.08 5.08 0 01-5.05 5.08h-14.89v-10.17H147a5.07 5.07 0 015.05 5.08m.94 6.7a9 9 0 00-5.69-15.75H128v35.75h20.42a10.73 10.73 0 004.58-19.99" class="cls-1"/>
    </g>
  </g>
</svg>
