<?xml version="1.0" encoding="UTF-8" standalone="no"?>
<!DOCTYPE svg PUBLIC "-//W3C//DTD SVG 1.1//EN"
 "http://www.w3.org/Graphics/SVG/1.1/DTD/svg11.dtd">
<!-- Generated by graphviz version 2.40.1 (20161225.0304)
 -->
<!-- Title: depends Pages: 1 -->
<svg width="4855pt" height="749pt"
 viewBox="0.00 0.00 4854.77 748.67" xmlns="http://www.w3.org/2000/svg" xmlns:xlink="http://www.w3.org/1999/xlink">
<g id="graph0" class="graph" transform="scale(1 1) rotate(0) translate(4 744.6732)">
<title>depends</title>
<polygon fill="#ffffff" stroke="transparent" points="-4,4 -4,-744.6732 4850.7651,-744.6732 4850.7651,4 -4,4"/>
<!-- cairo -->
<g id="node1" class="node">
<title>cairo</title>
<ellipse fill="none" stroke="#000000" cx="879.2447" cy="-259.3833" rx="219.4064" ry="37.4533"/>
<text text-anchor="middle" x="879.2447" y="-270.6833" font-family="Times,serif" font-size="14.00" fill="#000000">cairo</text>
<text text-anchor="middle" x="879.2447" y="-255.6833" font-family="Times,serif" font-size="14.00" fill="#000000">:1.16.0&#45;r0</text>
<text text-anchor="middle" x="879.2447" y="-240.6833" font-family="Times,serif" font-size="14.00" fill="#000000">openbmc/meta/recipes&#45;graphics/cairo/cairo_1.16.0.bb</text>
</g>
<!-- fontconfig -->
<g id="node2" class="node">
<title>fontconfig</title>
<ellipse fill="none" stroke="#000000" cx="481.2447" cy="-148.43" rx="260.4308" ry="37.4533"/>
<text text-anchor="middle" x="481.2447" y="-159.73" font-family="Times,serif" font-size="14.00" fill="#000000">fontconfig</text>
<text text-anchor="middle" x="481.2447" y="-144.73" font-family="Times,serif" font-size="14.00" fill="#000000">:2.13.1&#45;r0</text>
<text text-anchor="middle" x="481.2447" y="-129.73" font-family="Times,serif" font-size="14.00" fill="#000000">openbmc/meta/recipes&#45;graphics/fontconfig/fontconfig_2.13.1.bb</text>
</g>
<!-- cairo&#45;&gt;fontconfig -->
<g id="edge1" class="edge">
<title>cairo&#45;&gt;fontconfig</title>
<path fill="none" stroke="#000000" d="M764.3937,-227.3655C716.283,-213.9533 660.1288,-198.2988 610.572,-184.4835"/>
<polygon fill="#000000" stroke="#000000" points="611.3256,-181.0601 600.7529,-181.7461 609.4457,-187.803 611.3256,-181.0601"/>
</g>
<!-- freetype -->
<g id="node3" class="node">
<title>freetype</title>
<ellipse fill="none" stroke="#000000" cx="243.2447" cy="-37.4767" rx="243.4897" ry="37.4533"/>
<text text-anchor="middle" x="243.2447" y="-48.7767" font-family="Times,serif" font-size="14.00" fill="#000000">freetype</text>
<text text-anchor="middle" x="243.2447" y="-33.7767" font-family="Times,serif" font-size="14.00" fill="#000000">:2.10.0&#45;r0</text>
<text text-anchor="middle" x="243.2447" y="-18.7767" font-family="Times,serif" font-size="14.00" fill="#000000">openbmc/meta/recipes&#45;graphics/freetype/freetype_2.10.0.bb</text>
</g>
<!-- cairo&#45;&gt;freetype -->
<g id="edge2" class="edge">
<title>cairo&#45;&gt;freetype</title>
<path fill="none" stroke="#000000" d="M857.6107,-221.8122C835.3944,-186.9607 797.4442,-136.7153 750.2447,-110.9533 723.3529,-96.2755 578.5383,-76.1125 450.5289,-60.6207"/>
<polygon fill="#000000" stroke="#000000" points="450.9076,-57.1412 440.5607,-59.4197 450.0702,-64.0909 450.9076,-57.1412"/>
</g>
<!-- libpng -->
<g id="node4" class="node">
<title>libpng</title>
<ellipse fill="none" stroke="#000000" cx="820.2447" cy="-37.4767" rx="241.6612" ry="37.4533"/>
<text text-anchor="middle" x="820.2447" y="-48.7767" font-family="Times,serif" font-size="14.00" fill="#000000">libpng</text>
<text text-anchor="middle" x="820.2447" y="-33.7767" font-family="Times,serif" font-size="14.00" fill="#000000">:1.6.37&#45;r0</text>
<text text-anchor="middle" x="820.2447" y="-18.7767" font-family="Times,serif" font-size="14.00" fill="#000000">openbmc/meta/recipes&#45;multimedia/libpng/libpng_1.6.37.bb</text>
</g>
<!-- cairo&#45;&gt;libpng -->
<g id="edge3" class="edge">
<title>cairo&#45;&gt;libpng</title>
<path fill="none" stroke="#000000" d="M869.2362,-221.7399C859.1829,-183.928 843.663,-125.5557 832.7922,-84.6694"/>
<polygon fill="#000000" stroke="#000000" points="836.1558,-83.6987 830.2037,-74.9338 829.3908,-85.4974 836.1558,-83.6987"/>
</g>
<!-- pixman -->
<g id="node5" class="node">
<title>pixman</title>
<ellipse fill="none" stroke="#000000" cx="1342.2447" cy="-148.43" rx="241.2469" ry="37.4533"/>
<text text-anchor="middle" x="1342.2447" y="-159.73" font-family="Times,serif" font-size="14.00" fill="#000000">pixman</text>
<text text-anchor="middle" x="1342.2447" y="-144.73" font-family="Times,serif" font-size="14.00" fill="#000000">1:0.38.4&#45;r0</text>
<text text-anchor="middle" x="1342.2447" y="-129.73" font-family="Times,serif" font-size="14.00" fill="#000000">openbmc/meta/recipes&#45;graphics/xorg&#45;lib/pixman_0.38.4.bb</text>
</g>
<!-- cairo&#45;&gt;pixman -->
<g id="edge4" class="edge">
<title>cairo&#45;&gt;pixman</title>
<path fill="none" stroke="#000000" d="M1006.6804,-228.8446C1066.9007,-214.4134 1138.9849,-197.1392 1200.8813,-182.3063"/>
<polygon fill="#000000" stroke="#000000" points="1201.8154,-185.6816 1210.7244,-179.9475 1200.1841,-178.8744 1201.8154,-185.6816"/>
</g>
<!-- util&#45;macros -->
<g id="node6" class="node">
<title>util&#45;macros</title>
<ellipse fill="none" stroke="#000000" cx="1476.2447" cy="-37.4767" rx="258.188" ry="37.4533"/>
<text text-anchor="middle" x="1476.2447" y="-48.7767" font-family="Times,serif" font-size="14.00" fill="#000000">util&#45;macros</text>
<text text-anchor="middle" x="1476.2447" y="-33.7767" font-family="Times,serif" font-size="14.00" fill="#000000">1:1.19.2&#45;r0</text>
<text text-anchor="middle" x="1476.2447" y="-18.7767" font-family="Times,serif" font-size="14.00" fill="#000000">openbmc/meta/recipes&#45;graphics/xorg&#45;util/util&#45;macros_1.19.2.bb</text>
</g>
<!-- cairo&#45;&gt;util&#45;macros -->
<g id="edge5" class="edge">
<title>cairo&#45;&gt;util&#45;macros</title>
<path fill="none" stroke="#000000" d="M912.9519,-222.233C946.5304,-187.6898 1001.3108,-137.6627 1059.2447,-110.9533 1097.6937,-93.2271 1185.9685,-76.5767 1271.4457,-63.623"/>
<polygon fill="#000000" stroke="#000000" points="1272.2125,-67.0472 1281.5824,-62.1018 1271.1737,-60.1247 1272.2125,-67.0472"/>
</g>
<!-- fontconfig&#45;&gt;freetype -->
<g id="edge31" class="edge">
<title>fontconfig&#45;&gt;freetype</title>
<path fill="none" stroke="#000000" d="M404.3016,-112.5598C380.3369,-101.3877 353.7606,-88.9981 329.2193,-77.5572"/>
<polygon fill="#000000" stroke="#000000" points="330.4653,-74.2765 319.923,-73.2233 327.5076,-80.6209 330.4653,-74.2765"/>
</g>
<!-- pixman&#45;&gt;libpng -->
<g id="edge56" class="edge">
<title>pixman&#45;&gt;libpng</title>
<path fill="none" stroke="#000000" d="M1199.6059,-118.1115C1129.4039,-103.1898 1044.7076,-85.1872 973.1682,-69.9812"/>
<polygon fill="#000000" stroke="#000000" points="973.6731,-66.5104 963.1639,-67.8547 972.2177,-73.3574 973.6731,-66.5104"/>
</g>
<!-- pixman&#45;&gt;util&#45;macros -->
<g id="edge57" class="edge">
<title>pixman&#45;&gt;util&#45;macros</title>
<path fill="none" stroke="#000000" d="M1386.8648,-111.4841C1398.6061,-101.7622 1411.3834,-91.1825 1423.5073,-81.1438"/>
<polygon fill="#000000" stroke="#000000" points="1425.8925,-83.713 1431.3626,-74.6395 1421.4281,-78.3213 1425.8925,-83.713"/>
</g>
<!-- collectd -->
<g id="node7" class="node">
<title>collectd</title>
<ellipse fill="none" stroke="#000000" cx="1872.2447" cy="-703.1966" rx="334.423" ry="37.4533"/>
<text text-anchor="middle" x="1872.2447" y="-714.4966" font-family="Times,serif" font-size="14.00" fill="#000000">collectd</text>
<text text-anchor="middle" x="1872.2447" y="-699.4966" font-family="Times,serif" font-size="14.00" fill="#000000">:5.8.1&#45;r0</text>
<text text-anchor="middle" x="1872.2447" y="-684.4966" font-family="Times,serif" font-size="14.00" fill="#000000">openbmc/meta&#45;openembedded/meta&#45;oe/recipes&#45;extended/collectd/collectd_5.8.1.bb</text>
</g>
<!-- collectd&#45;&gt;cairo -->
<g id="edge6" class="edge">
<title>collectd&#45;&gt;cairo</title>
<path fill="none" stroke="#000000" d="M1704.2452,-670.7293C1656.7656,-659.6836 1605.4582,-645.9477 1559.2447,-629.7199 1378.0708,-566.1009 1352.741,-500.3859 1169.2447,-443.8133 1069.1113,-412.9417 1017.8066,-473.5964 936.2447,-407.8133 927.8654,-401.055 908.5333,-347.4195 894.708,-306.5457"/>
<polygon fill="#000000" stroke="#000000" points="898.0007,-305.3563 891.4976,-296.9921 891.3653,-307.5861 898.0007,-305.3563"/>
</g>
<!-- collectd&#45;&gt;fontconfig -->
<g id="edge8" class="edge">
<title>collectd&#45;&gt;fontconfig</title>
<path fill="none" stroke="#000000" d="M1538.4001,-700.8053C1047.6191,-695.6212 183.9139,-679.4493 136.2447,-629.7199 33.1569,-522.1765 -7.7565,-495.8066 283.2447,-221.9066 299.4087,-206.6926 319.0009,-194.5652 339.496,-184.9153"/>
<polygon fill="#000000" stroke="#000000" points="340.9668,-188.0915 348.6458,-180.792 338.0908,-181.7096 340.9668,-188.0915"/>
</g>
<!-- collectd&#45;&gt;freetype -->
<g id="edge9" class="edge">
<title>collectd&#45;&gt;freetype</title>
<path fill="none" stroke="#000000" d="M1538.8357,-700.2234C1032.8891,-694.2047 123.8151,-676.866 69.2447,-629.7199 18.4453,-585.8317 41.2447,-548.4223 41.2447,-481.2899 41.2447,-481.2899 41.2447,-481.2899 41.2447,-259.3833 41.2447,-180.6805 111.5892,-117.5889 169.2549,-79.0911"/>
<polygon fill="#000000" stroke="#000000" points="171.2097,-81.9948 177.6611,-73.5906 167.3769,-76.1373 171.2097,-81.9948"/>
</g>
<!-- collectd&#45;&gt;libpng -->
<g id="edge17" class="edge">
<title>collectd&#45;&gt;libpng</title>
<path fill="none" stroke="#000000" d="M1538.9033,-700.0313C1049.0806,-693.8207 186.9721,-676.3082 136.2447,-629.7199 87.2611,-584.7331 117.2447,-547.7971 117.2447,-481.2899 117.2447,-481.2899 117.2447,-481.2899 117.2447,-370.3366 117.2447,-310.9672 136.67,-150.1684 181.2447,-110.9533 233.9773,-64.5613 425.4696,-82.9762 495.2447,-74.9533 534.2578,-70.4675 575.9042,-65.6711 615.9157,-61.0591"/>
<polygon fill="#000000" stroke="#000000" points="616.517,-64.513 626.0503,-59.8908 615.7153,-57.5591 616.517,-64.513"/>
</g>
<!-- collectd&#45;&gt;pixman -->
<g id="edge22" class="edge">
<title>collectd&#45;&gt;pixman</title>
<path fill="none" stroke="#000000" d="M1728.1617,-669.2692C1687.6968,-657.4401 1650.5439,-643.63 1635.2447,-629.7199 1582.3474,-581.6255 1573.2447,-552.7826 1573.2447,-481.2899 1573.2447,-481.2899 1573.2447,-481.2899 1573.2447,-370.3366 1573.2447,-287.6137 1495.2499,-226.1015 1429.9008,-189.0809"/>
<polygon fill="#000000" stroke="#000000" points="1431.216,-185.8081 1420.7731,-184.02 1427.8216,-191.9301 1431.216,-185.8081"/>
</g>
<!-- collectd&#45;&gt;util&#45;macros -->
<g id="edge25" class="edge">
<title>collectd&#45;&gt;util&#45;macros</title>
<path fill="none" stroke="#000000" d="M1836.39,-665.9065C1788.3107,-613.2609 1704.7738,-511.9014 1668.2447,-407.8133 1624.4452,-283.0083 1723.8589,-218.7724 1647.2447,-110.9533 1637.075,-96.6415 1623.5188,-85.0949 1608.4718,-75.7845"/>
<polygon fill="#000000" stroke="#000000" points="1609.8612,-72.5444 1599.4544,-70.557 1606.3505,-78.6004 1609.8612,-72.5444"/>
</g>
<!-- curl -->
<g id="node8" class="node">
<title>curl</title>
<ellipse fill="none" stroke="#000000" cx="2157.2447" cy="-592.2433" rx="207.3647" ry="37.4533"/>
<text text-anchor="middle" x="2157.2447" y="-603.5433" font-family="Times,serif" font-size="14.00" fill="#000000">curl</text>
<text text-anchor="middle" x="2157.2447" y="-588.5433" font-family="Times,serif" font-size="14.00" fill="#000000">:7.65.1&#45;r0</text>
<text text-anchor="middle" x="2157.2447" y="-573.5433" font-family="Times,serif" font-size="14.00" fill="#000000">openbmc/meta/recipes&#45;support/curl/curl_7.65.1.bb</text>
</g>
<!-- collectd&#45;&gt;curl -->
<g id="edge7" class="edge">
<title>collectd&#45;&gt;curl</title>
<path fill="none" stroke="#000000" d="M1964.7761,-667.1732C1995.2667,-655.3029 2029.252,-642.0721 2060.078,-630.0712"/>
<polygon fill="#000000" stroke="#000000" points="2061.4869,-633.2787 2069.5359,-626.3892 2058.9474,-626.7556 2061.4869,-633.2787"/>
</g>
<!-- fribidi -->
<g id="node9" class="node">
<title>fribidi</title>
<ellipse fill="none" stroke="#000000" cx="517.2447" cy="-370.3366" rx="219.8205" ry="37.4533"/>
<text text-anchor="middle" x="517.2447" y="-381.6366" font-family="Times,serif" font-size="14.00" fill="#000000">fribidi</text>
<text text-anchor="middle" x="517.2447" y="-366.6366" font-family="Times,serif" font-size="14.00" fill="#000000">:1.0.5&#45;r0</text>
<text text-anchor="middle" x="517.2447" y="-351.6366" font-family="Times,serif" font-size="14.00" fill="#000000">openbmc/meta/recipes&#45;support/fribidi/fribidi_1.0.5.bb</text>
</g>
<!-- collectd&#45;&gt;fribidi -->
<g id="edge10" class="edge">
<title>collectd&#45;&gt;fribidi</title>
<path fill="none" stroke="#000000" d="M1573.7256,-686.2594C1431.4037,-675.2081 1259.2155,-657.5009 1106.2447,-629.7199 1059.7046,-621.2678 737.2147,-540.5828 695.2447,-518.7666 643.6318,-491.9379 593.5475,-448.0758 559.7248,-414.974"/>
<polygon fill="#000000" stroke="#000000" points="561.9054,-412.2078 552.3362,-407.6602 556.9809,-417.1826 561.9054,-412.2078"/>
</g>
<!-- gnutls -->
<g id="node10" class="node">
<title>gnutls</title>
<ellipse fill="none" stroke="#000000" cx="2157.2447" cy="-481.2899" rx="219.4064" ry="37.4533"/>
<text text-anchor="middle" x="2157.2447" y="-492.5899" font-family="Times,serif" font-size="14.00" fill="#000000">gnutls</text>
<text text-anchor="middle" x="2157.2447" y="-477.5899" font-family="Times,serif" font-size="14.00" fill="#000000">:3.6.8&#45;r0</text>
<text text-anchor="middle" x="2157.2447" y="-462.5899" font-family="Times,serif" font-size="14.00" fill="#000000">openbmc/meta/recipes&#45;support/gnutls/gnutls_3.6.8.bb</text>
</g>
<!-- collectd&#45;&gt;gnutls -->
<g id="edge11" class="edge">
<title>collectd&#45;&gt;gnutls</title>
<path fill="none" stroke="#000000" d="M1880.7792,-665.5347C1890.2106,-632.0925 1908.5798,-584.1032 1941.2447,-554.7666 1960.5166,-537.4583 1984.0376,-524.1981 2008.3792,-514.0473"/>
<polygon fill="#000000" stroke="#000000" points="2009.7535,-517.2673 2017.7414,-510.3072 2007.1566,-510.7668 2009.7535,-517.2673"/>
</g>
<!-- harfbuzz -->
<g id="node11" class="node">
<title>harfbuzz</title>
<ellipse fill="none" stroke="#000000" cx="1188.2447" cy="-370.3366" rx="243.4897" ry="37.4533"/>
<text text-anchor="middle" x="1188.2447" y="-381.6366" font-family="Times,serif" font-size="14.00" fill="#000000">harfbuzz</text>
<text text-anchor="middle" x="1188.2447" y="-366.6366" font-family="Times,serif" font-size="14.00" fill="#000000">:2.4.0&#45;r0</text>
<text text-anchor="middle" x="1188.2447" y="-351.6366" font-family="Times,serif" font-size="14.00" fill="#000000">openbmc/meta/recipes&#45;graphics/harfbuzz/harfbuzz_2.4.0.bb</text>
</g>
<!-- collectd&#45;&gt;harfbuzz -->
<g id="edge12" class="edge">
<title>collectd&#45;&gt;harfbuzz</title>
<path fill="none" stroke="#000000" d="M1686.7695,-671.8975C1643.8613,-661.337 1599.1194,-647.5442 1559.2447,-629.7199 1433.2462,-573.3974 1305.5312,-472.2891 1237.746,-414.3432"/>
<polygon fill="#000000" stroke="#000000" points="1239.6457,-411.3608 1229.7807,-407.4965 1235.0827,-416.6693 1239.6457,-411.3608"/>
</g>
<!-- libaio -->
<g id="node12" class="node">
<title>libaio</title>
<ellipse fill="none" stroke="#000000" cx="2997.2447" cy="-259.3833" rx="231.4481" ry="37.4533"/>
<text text-anchor="middle" x="2997.2447" y="-270.6833" font-family="Times,serif" font-size="14.00" fill="#000000">libaio</text>
<text text-anchor="middle" x="2997.2447" y="-255.6833" font-family="Times,serif" font-size="14.00" fill="#000000">:0.3.111&#45;r0</text>
<text text-anchor="middle" x="2997.2447" y="-240.6833" font-family="Times,serif" font-size="14.00" fill="#000000">openbmc/meta/recipes&#45;extended/libaio/libaio_0.3.111.bb</text>
</g>
<!-- collectd&#45;&gt;libaio -->
<g id="edge13" class="edge">
<title>collectd&#45;&gt;libaio</title>
<path fill="none" stroke="#000000" d="M2206.0878,-700.5907C2639.1355,-695.2418 3352.6328,-678.9821 3464.2447,-629.7199 3591.8725,-573.3888 3632.8444,-536.6948 3686.2447,-407.8133 3698.9961,-377.0378 3708.5164,-357.633 3686.2447,-332.86 3655.7263,-298.9139 3419.1869,-279.3917 3231.6575,-269.1226"/>
<polygon fill="#000000" stroke="#000000" points="3231.8145,-265.6261 3221.6398,-268.5803 3231.436,-272.6159 3231.8145,-265.6261"/>
</g>
<!-- libdevmapper -->
<g id="node13" class="node">
<title>libdevmapper</title>
<ellipse fill="none" stroke="#000000" cx="3064.2447" cy="-592.2433" rx="350.9501" ry="37.4533"/>
<text text-anchor="middle" x="3064.2447" y="-603.5433" font-family="Times,serif" font-size="14.00" fill="#000000">libdevmapper</text>
<text text-anchor="middle" x="3064.2447" y="-588.5433" font-family="Times,serif" font-size="14.00" fill="#000000">:2.03.02&#45;r0</text>
<text text-anchor="middle" x="3064.2447" y="-573.5433" font-family="Times,serif" font-size="14.00" fill="#000000">openbmc/meta&#45;openembedded/meta&#45;oe/recipes&#45;support/lvm2/libdevmapper_2.03.02.bb</text>
</g>
<!-- collectd&#45;&gt;libdevmapper -->
<g id="edge14" class="edge">
<title>collectd&#45;&gt;libdevmapper</title>
<path fill="none" stroke="#000000" d="M2138.6277,-680.462C2300.7482,-666.3938 2511.996,-647.6503 2699.2447,-629.7199 2732.8632,-626.5007 2768.2115,-623.0076 2803.1314,-619.492"/>
<polygon fill="#000000" stroke="#000000" points="2803.8596,-622.9364 2813.4579,-618.4505 2803.1571,-615.9717 2803.8596,-622.9364"/>
</g>
<!-- libidn2 -->
<g id="node14" class="node">
<title>libidn2</title>
<ellipse fill="none" stroke="#000000" cx="1905.2447" cy="-370.3366" rx="227.8769" ry="37.4533"/>
<text text-anchor="middle" x="1905.2447" y="-381.6366" font-family="Times,serif" font-size="14.00" fill="#000000">libidn2</text>
<text text-anchor="middle" x="1905.2447" y="-366.6366" font-family="Times,serif" font-size="14.00" fill="#000000">:2.2.0&#45;r0</text>
<text text-anchor="middle" x="1905.2447" y="-351.6366" font-family="Times,serif" font-size="14.00" fill="#000000">openbmc/meta/recipes&#45;extended/libidn/libidn2_2.2.0.bb</text>
</g>
<!-- collectd&#45;&gt;libidn2 -->
<g id="edge15" class="edge">
<title>collectd&#45;&gt;libidn2</title>
<path fill="none" stroke="#000000" d="M1875.9661,-665.6603C1881.9902,-604.8977 1893.8696,-485.074 1900.4951,-418.2443"/>
<polygon fill="#000000" stroke="#000000" points="1904.0079,-418.2872 1901.5117,-407.9907 1897.0421,-417.5966 1904.0079,-418.2872"/>
</g>
<!-- libpcap -->
<g id="node15" class="node">
<title>libpcap</title>
<ellipse fill="none" stroke="#000000" cx="3980.2447" cy="-592.2433" rx="247.4747" ry="37.4533"/>
<text text-anchor="middle" x="3980.2447" y="-603.5433" font-family="Times,serif" font-size="14.00" fill="#000000">libpcap</text>
<text text-anchor="middle" x="3980.2447" y="-588.5433" font-family="Times,serif" font-size="14.00" fill="#000000">:1.9.0&#45;r0</text>
<text text-anchor="middle" x="3980.2447" y="-573.5433" font-family="Times,serif" font-size="14.00" fill="#000000">openbmc/meta/recipes&#45;connectivity/libpcap/libpcap_1.9.0.bb</text>
</g>
<!-- collectd&#45;&gt;libpcap -->
<g id="edge16" class="edge">
<title>collectd&#45;&gt;libpcap</title>
<path fill="none" stroke="#000000" d="M2197.2693,-694.2973C2646.3754,-681.3054 3433.6201,-655.8377 3719.2447,-629.7199 3745.1154,-627.3543 3772.3421,-624.1958 3799.0522,-620.7122"/>
<polygon fill="#000000" stroke="#000000" points="3799.8053,-624.1432 3809.26,-619.3622 3798.8874,-617.2036 3799.8053,-624.1432"/>
</g>
<!-- libunistring -->
<g id="node16" class="node">
<title>libunistring</title>
<ellipse fill="none" stroke="#000000" cx="2204.2447" cy="-259.3833" rx="265.3302" ry="37.4533"/>
<text text-anchor="middle" x="2204.2447" y="-270.6833" font-family="Times,serif" font-size="14.00" fill="#000000">libunistring</text>
<text text-anchor="middle" x="2204.2447" y="-255.6833" font-family="Times,serif" font-size="14.00" fill="#000000">:0.9.10&#45;r0</text>
<text text-anchor="middle" x="2204.2447" y="-240.6833" font-family="Times,serif" font-size="14.00" fill="#000000">openbmc/meta/recipes&#45;support/libunistring/libunistring_0.9.10.bb</text>
</g>
<!-- collectd&#45;&gt;libunistring -->
<g id="edge18" class="edge">
<title>collectd&#45;&gt;libunistring</title>
<path fill="none" stroke="#000000" d="M2143.0599,-681.1917C2251.1236,-669.3017 2361.1984,-652.3439 2409.2447,-629.7199 2540.9728,-567.6922 2591.765,-541.1543 2650.2447,-407.8133 2663.6245,-377.3057 2671.8009,-358.258 2650.2447,-332.86 2634.5645,-314.3851 2530.1909,-296.6332 2426.3602,-283.2075"/>
<polygon fill="#000000" stroke="#000000" points="2426.6803,-279.7199 2416.3168,-281.9218 2425.7914,-286.6633 2426.6803,-279.7199"/>
</g>
<!-- lvm2 -->
<g id="node17" class="node">
<title>lvm2</title>
<ellipse fill="none" stroke="#000000" cx="3068.2447" cy="-481.2899" rx="317.4819" ry="37.4533"/>
<text text-anchor="middle" x="3068.2447" y="-492.5899" font-family="Times,serif" font-size="14.00" fill="#000000">lvm2</text>
<text text-anchor="middle" x="3068.2447" y="-477.5899" font-family="Times,serif" font-size="14.00" fill="#000000">:2.03.02&#45;r0</text>
<text text-anchor="middle" x="3068.2447" y="-462.5899" font-family="Times,serif" font-size="14.00" fill="#000000">openbmc/meta&#45;openembedded/meta&#45;oe/recipes&#45;support/lvm2/lvm2_2.03.02.bb</text>
</g>
<!-- collectd&#45;&gt;lvm2 -->
<g id="edge19" class="edge">
<title>collectd&#45;&gt;lvm2</title>
<path fill="none" stroke="#000000" d="M2204.6801,-698.9932C2648.1573,-691.7219 3382.8063,-673.1666 3424.2447,-629.7199 3447.2366,-605.6138 3445.2853,-580.5934 3424.2447,-554.7666 3407.6279,-534.3698 3364.0727,-519.4652 3312.8888,-508.6387"/>
<polygon fill="#000000" stroke="#000000" points="3313.4013,-505.1711 3302.9027,-506.5959 3311.9983,-512.0291 3313.4013,-505.1711"/>
</g>
<!-- nettle -->
<g id="node18" class="node">
<title>nettle</title>
<ellipse fill="none" stroke="#000000" cx="2404.2447" cy="-370.3366" rx="214.9209" ry="37.4533"/>
<text text-anchor="middle" x="2404.2447" y="-381.6366" font-family="Times,serif" font-size="14.00" fill="#000000">nettle</text>
<text text-anchor="middle" x="2404.2447" y="-366.6366" font-family="Times,serif" font-size="14.00" fill="#000000">:3.4.1&#45;r0</text>
<text text-anchor="middle" x="2404.2447" y="-351.6366" font-family="Times,serif" font-size="14.00" fill="#000000">openbmc/meta/recipes&#45;support/nettle/nettle_3.4.1.bb</text>
</g>
<!-- collectd&#45;&gt;nettle -->
<g id="edge20" class="edge">
<title>collectd&#45;&gt;nettle</title>
<path fill="none" stroke="#000000" d="M2167.5188,-685.5325C2256.5019,-674.7809 2339.5345,-657.4971 2373.2447,-629.7199 2433.9587,-579.6917 2426.6267,-478.3687 2415.5882,-418.2352"/>
<polygon fill="#000000" stroke="#000000" points="2418.9878,-417.3809 2413.6477,-408.2303 2412.1159,-418.7138 2418.9878,-417.3809"/>
</g>
<!-- pango -->
<g id="node19" class="node">
<title>pango</title>
<ellipse fill="none" stroke="#000000" cx="932.2447" cy="-481.2899" rx="227.8769" ry="37.4533"/>
<text text-anchor="middle" x="932.2447" y="-492.5899" font-family="Times,serif" font-size="14.00" fill="#000000">pango</text>
<text text-anchor="middle" x="932.2447" y="-477.5899" font-family="Times,serif" font-size="14.00" fill="#000000">:1.42.4&#45;r0</text>
<text text-anchor="middle" x="932.2447" y="-462.5899" font-family="Times,serif" font-size="14.00" fill="#000000">openbmc/meta/recipes&#45;graphics/pango/pango_1.42.4.bb</text>
</g>
<!-- collectd&#45;&gt;pango -->
<g id="edge21" class="edge">
<title>collectd&#45;&gt;pango</title>
<path fill="none" stroke="#000000" d="M1610.2203,-679.8582C1520.0257,-668.6524 1418.9346,-652.5328 1328.2447,-629.7199 1219.2839,-602.311 1099.0877,-554.6321 1020.0233,-520.7109"/>
<polygon fill="#000000" stroke="#000000" points="1021.1575,-517.3885 1010.5888,-516.6446 1018.3868,-523.8169 1021.1575,-517.3885"/>
</g>
<!-- rrdtool -->
<g id="node20" class="node">
<title>rrdtool</title>
<ellipse fill="none" stroke="#000000" cx="471.2447" cy="-592.2433" rx="325.9525" ry="37.4533"/>
<text text-anchor="middle" x="471.2447" y="-603.5433" font-family="Times,serif" font-size="14.00" fill="#000000">rrdtool</text>
<text text-anchor="middle" x="471.2447" y="-588.5433" font-family="Times,serif" font-size="14.00" fill="#000000">:1.7.2&#45;r0</text>
<text text-anchor="middle" x="471.2447" y="-573.5433" font-family="Times,serif" font-size="14.00" fill="#000000">openbmc/meta&#45;openembedded/meta&#45;oe/recipes&#45;extended/rrdtool/rrdtool_1.7.2.bb</text>
</g>
<!-- collectd&#45;&gt;rrdtool -->
<g id="edge23" class="edge">
<title>collectd&#45;&gt;rrdtool</title>
<path fill="none" stroke="#000000" d="M1575.5728,-685.8883C1362.6742,-672.6777 1069.0554,-652.8459 811.2447,-629.7199 778.9491,-626.8229 744.9629,-623.4569 711.4764,-619.9536"/>
<polygon fill="#000000" stroke="#000000" points="711.4138,-616.4278 701.1025,-618.8624 710.6814,-623.3894 711.4138,-616.4278"/>
</g>
<!-- thin&#45;provisioning&#45;tools -->
<g id="node21" class="node">
<title>thin&#45;provisioning&#45;tools</title>
<ellipse fill="none" stroke="#000000" cx="3233.2447" cy="-370.3366" rx="444.1261" ry="37.4533"/>
<text text-anchor="middle" x="3233.2447" y="-381.6366" font-family="Times,serif" font-size="14.00" fill="#000000">thin&#45;provisioning&#45;tools</text>
<text text-anchor="middle" x="3233.2447" y="-366.6366" font-family="Times,serif" font-size="14.00" fill="#000000">:0.7.6&#45;r0</text>
<text text-anchor="middle" x="3233.2447" y="-351.6366" font-family="Times,serif" font-size="14.00" fill="#000000">openbmc/meta&#45;openembedded/meta&#45;oe/recipes&#45;support/thin&#45;provisioning&#45;tools/thin&#45;provisioning&#45;tools_0.7.6.bb</text>
</g>
<!-- collectd&#45;&gt;thin&#45;provisioning&#45;tools -->
<g id="edge24" class="edge">
<title>collectd&#45;&gt;thin&#45;provisioning&#45;tools</title>
<path fill="none" stroke="#000000" d="M2205.1352,-699.2269C2654.4337,-692.2031 3404.0729,-673.9063 3446.2447,-629.7199 3478.14,-596.3009 3416.4598,-444.0553 3416.2447,-443.8133 3404.6479,-430.7639 3390.4103,-419.9978 3375.0441,-411.1232"/>
<polygon fill="#000000" stroke="#000000" points="3376.3312,-407.838 3365.8776,-406.1135 3372.9741,-413.9806 3376.3312,-407.838"/>
</g>
<!-- yajl -->
<g id="node22" class="node">
<title>yajl</title>
<ellipse fill="none" stroke="#000000" cx="4546.2447" cy="-592.2433" rx="300.5408" ry="37.4533"/>
<text text-anchor="middle" x="4546.2447" y="-603.5433" font-family="Times,serif" font-size="14.00" fill="#000000">yajl</text>
<text text-anchor="middle" x="4546.2447" y="-588.5433" font-family="Times,serif" font-size="14.00" fill="#000000">:2.1.0&#45;r0</text>
<text text-anchor="middle" x="4546.2447" y="-573.5433" font-family="Times,serif" font-size="14.00" fill="#000000">openbmc/meta&#45;openembedded/meta&#45;oe/recipes&#45;devtools/yajl/yajl_2.1.0.bb</text>
</g>
<!-- collectd&#45;&gt;yajl -->
<g id="edge26" class="edge">
<title>collectd&#45;&gt;yajl</title>
<path fill="none" stroke="#000000" d="M2201.7273,-696.5934C2755.7683,-684.8777 3851.1799,-658.9213 4236.2447,-629.7199 4266.8524,-627.3988 4299.0859,-624.271 4330.7285,-620.8071"/>
<polygon fill="#000000" stroke="#000000" points="4331.425,-624.2514 4340.9786,-619.6712 4330.6539,-617.294 4331.425,-624.2514"/>
</g>
<!-- curl&#45;&gt;gnutls -->
<g id="edge27" class="edge">
<title>curl&#45;&gt;gnutls</title>
<path fill="none" stroke="#000000" d="M2157.2447,-554.6795C2157.2447,-546.4556 2157.2447,-537.6434 2157.2447,-529.0802"/>
<polygon fill="#000000" stroke="#000000" points="2160.7448,-528.8149 2157.2447,-518.815 2153.7448,-528.815 2160.7448,-528.8149"/>
</g>
<!-- curl&#45;&gt;libidn2 -->
<g id="edge28" class="edge">
<title>curl&#45;&gt;libidn2</title>
<path fill="none" stroke="#000000" d="M2027.3884,-562.9083C1984.1889,-550.593 1943.4374,-535.2897 1929.2447,-518.7666 1905.6858,-491.3393 1900.5945,-450.14 1900.8834,-418.1006"/>
<polygon fill="#000000" stroke="#000000" points="1904.3835,-418.1383 1901.1496,-408.0491 1897.386,-417.9529 1904.3835,-418.1383"/>
</g>
<!-- curl&#45;&gt;libunistring -->
<g id="edge29" class="edge">
<title>curl&#45;&gt;libunistring</title>
<path fill="none" stroke="#000000" d="M2280.3187,-562.029C2406.8603,-528.0337 2590.6065,-469.4604 2628.2447,-407.8133 2645.6038,-379.3811 2649.6952,-358.3473 2628.2447,-332.86 2604.1032,-304.175 2533.7166,-286.6884 2457.058,-276.0284"/>
<polygon fill="#000000" stroke="#000000" points="2457.0759,-272.4993 2446.6983,-274.6334 2456.1417,-279.4367 2457.0759,-272.4993"/>
</g>
<!-- curl&#45;&gt;nettle -->
<g id="edge30" class="edge">
<title>curl&#45;&gt;nettle</title>
<path fill="none" stroke="#000000" d="M2287.698,-563.0631C2330.819,-550.7937 2371.3598,-535.4816 2385.2447,-518.7666 2408.2379,-491.087 2411.912,-449.9085 2410.4414,-417.9411"/>
<polygon fill="#000000" stroke="#000000" points="2413.9314,-417.6712 2409.8011,-407.9146 2406.9456,-418.1174 2413.9314,-417.6712"/>
</g>
<!-- gnutls&#45;&gt;libidn2 -->
<g id="edge32" class="edge">
<title>gnutls&#45;&gt;libidn2</title>
<path fill="none" stroke="#000000" d="M2077.8562,-446.3359C2051.4002,-434.6875 2021.7527,-421.634 1994.5935,-409.6761"/>
<polygon fill="#000000" stroke="#000000" points="1995.6627,-406.3226 1985.1001,-405.4962 1992.8419,-412.7292 1995.6627,-406.3226"/>
</g>
<!-- gnutls&#45;&gt;libunistring -->
<g id="edge33" class="edge">
<title>gnutls&#45;&gt;libunistring</title>
<path fill="none" stroke="#000000" d="M2161.3544,-443.7543C2165.0693,-413.5489 2171.3296,-370.1415 2180.2447,-332.86 2182.2856,-324.3254 2184.8497,-315.3568 2187.5367,-306.7328"/>
<polygon fill="#000000" stroke="#000000" points="2190.878,-307.7751 2190.6012,-297.1839 2184.2128,-305.636 2190.878,-307.7751"/>
</g>
<!-- gnutls&#45;&gt;nettle -->
<g id="edge34" class="edge">
<title>gnutls&#45;&gt;nettle</title>
<path fill="none" stroke="#000000" d="M2235.3971,-446.1836C2261.3148,-434.5413 2290.3269,-421.5089 2316.8919,-409.5758"/>
<polygon fill="#000000" stroke="#000000" points="2318.4894,-412.6952 2326.1772,-405.4049 2315.6211,-406.3098 2318.4894,-412.6952"/>
</g>
<!-- harfbuzz&#45;&gt;cairo -->
<g id="edge35" class="edge">
<title>harfbuzz&#45;&gt;cairo</title>
<path fill="none" stroke="#000000" d="M1092.169,-335.8385C1057.6761,-323.4531 1018.627,-309.4316 983.4745,-296.8093"/>
<polygon fill="#000000" stroke="#000000" points="984.2646,-293.3743 973.6701,-293.2888 981.8989,-299.9624 984.2646,-293.3743"/>
</g>
<!-- harfbuzz&#45;&gt;fontconfig -->
<g id="edge36" class="edge">
<title>harfbuzz&#45;&gt;fontconfig</title>
<path fill="none" stroke="#000000" d="M988.5034,-348.8841C848.8218,-332.8806 681.9542,-311.3667 651.2447,-296.86 606.8958,-275.9101 607.1713,-254.1891 570.2447,-221.9066 559.0913,-212.156 546.9565,-201.9085 535.3376,-192.2646"/>
<polygon fill="#000000" stroke="#000000" points="537.3319,-189.3721 527.3945,-185.698 532.8717,-194.7672 537.3319,-189.3721"/>
</g>
<!-- harfbuzz&#45;&gt;freetype -->
<g id="edge37" class="edge">
<title>harfbuzz&#45;&gt;freetype</title>
<path fill="none" stroke="#000000" d="M1162.1143,-332.9268C1154.6522,-321.5768 1146.7796,-308.9162 1140.2447,-296.86 1122.8998,-264.86 1133.7757,-246.8254 1107.2447,-221.9066 1105.6161,-220.377 807.4144,-111.4867 805.2447,-110.9533 770.3332,-102.3712 592.1314,-79.6423 445.6161,-61.7153"/>
<polygon fill="#000000" stroke="#000000" points="445.9197,-58.2265 435.5689,-60.4874 445.0705,-65.1748 445.9197,-58.2265"/>
</g>
<!-- harfbuzz&#45;&gt;libpng -->
<g id="edge38" class="edge">
<title>harfbuzz&#45;&gt;libpng</title>
<path fill="none" stroke="#000000" d="M1183.9759,-332.762C1178.5904,-300.2906 1166.6019,-253.7048 1140.2447,-221.9066 1118.9216,-196.1817 1100.1081,-207.0615 1074.2447,-185.9066 1040.5605,-158.3548 1046.674,-136.2218 1011.2447,-110.9533 990.9437,-96.4744 967.4182,-84.4119 943.962,-74.529"/>
<polygon fill="#000000" stroke="#000000" points="945.213,-71.2592 934.6325,-70.708 942.5599,-77.737 945.213,-71.2592"/>
</g>
<!-- harfbuzz&#45;&gt;pixman -->
<g id="edge39" class="edge">
<title>harfbuzz&#45;&gt;pixman</title>
<path fill="none" stroke="#000000" d="M1214.1946,-332.9441C1240.6839,-294.7744 1281.8435,-235.4653 1310.3153,-194.4388"/>
<polygon fill="#000000" stroke="#000000" points="1313.3624,-196.1868 1316.1885,-185.9758 1307.6116,-192.1958 1313.3624,-196.1868"/>
</g>
<!-- harfbuzz&#45;&gt;util&#45;macros -->
<g id="edge40" class="edge">
<title>harfbuzz&#45;&gt;util&#45;macros</title>
<path fill="none" stroke="#000000" d="M1195.9411,-332.5603C1200.3245,-300.1792 1201.0809,-253.8392 1178.2447,-221.9066 1154.1416,-188.2024 1115.2008,-220.4024 1092.2447,-185.9066 1073.7891,-158.1737 1071.0177,-136.6271 1092.2447,-110.9533 1113.4234,-85.338 1174.5954,-68.568 1242.062,-57.6245"/>
<polygon fill="#000000" stroke="#000000" points="1242.7233,-61.0636 1252.0578,-56.0518 1241.6353,-54.1487 1242.7233,-61.0636"/>
</g>
<!-- libdevmapper&#45;&gt;libaio -->
<g id="edge41" class="edge">
<title>libdevmapper&#45;&gt;libaio</title>
<path fill="none" stroke="#000000" d="M2844.6695,-562.9989C2797.5657,-552.149 2757.3499,-537.7069 2742.2447,-518.7666 2719.4392,-490.1709 2760.5179,-334.8168 2762.2447,-332.86 2775.4775,-317.8649 2810.4322,-304.0153 2849.4617,-292.477"/>
<polygon fill="#000000" stroke="#000000" points="2850.8225,-295.7273 2859.4616,-289.5941 2848.8833,-289.0013 2850.8225,-295.7273"/>
</g>
<!-- libdevmapper&#45;&gt;lvm2 -->
<g id="edge42" class="edge">
<title>libdevmapper&#45;&gt;lvm2</title>
<path fill="none" stroke="#000000" d="M3059.1719,-554.6795C3059.1618,-546.3652 3059.3963,-537.4496 3059.8443,-528.798"/>
<polygon fill="#000000" stroke="#000000" points="3063.3376,-529.0133 3060.4664,-518.815 3056.3511,-528.5779 3063.3376,-529.0133"/>
</g>
<!-- libdevmapper&#45;&gt;thin&#45;provisioning&#45;tools -->
<g id="edge43" class="edge">
<title>libdevmapper&#45;&gt;thin&#45;provisioning&#45;tools</title>
<path fill="none" stroke="#000000" d="M3289.6596,-563.4502C3337.7493,-552.6077 3378.7775,-538.0564 3394.2447,-518.7666 3415.084,-492.7771 3412.2584,-471.8353 3394.2447,-443.8133 3386.2128,-431.3188 3375.4728,-420.923 3363.3341,-412.2788"/>
<polygon fill="#000000" stroke="#000000" points="3364.9917,-409.1785 3354.723,-406.5699 3361.1238,-415.0128 3364.9917,-409.1785"/>
</g>
<!-- libidn2&#45;&gt;libunistring -->
<g id="edge44" class="edge">
<title>libidn2&#45;&gt;libunistring</title>
<path fill="none" stroke="#000000" d="M1997.8025,-335.9901C2030.1935,-323.9705 2066.7773,-310.3949 2100.0536,-298.0467"/>
<polygon fill="#000000" stroke="#000000" points="2101.6464,-301.1889 2109.804,-294.4285 2099.211,-294.6262 2101.6464,-301.1889"/>
</g>
<!-- lvm2&#45;&gt;libaio -->
<g id="edge45" class="edge">
<title>lvm2&#45;&gt;libaio</title>
<path fill="none" stroke="#000000" d="M2877.696,-451.2436C2832.9955,-440.1904 2794.2535,-425.8447 2780.2447,-407.8133 2759.8071,-381.5068 2760.8305,-359.9306 2780.2447,-332.86 2790.7594,-318.1986 2821.0733,-304.7012 2855.8333,-293.3838"/>
<polygon fill="#000000" stroke="#000000" points="2857.2631,-296.6026 2865.7425,-290.2504 2855.1526,-289.9283 2857.2631,-296.6026"/>
</g>
<!-- lvm2&#45;&gt;libdevmapper -->
<g id="edge46" class="edge">
<title>lvm2&#45;&gt;libdevmapper</title>
<path fill="none" stroke="#000000" d="M3073.3175,-518.815C3073.3284,-527.1274 3073.0946,-536.0425 3072.6473,-544.6949"/>
<polygon fill="#000000" stroke="#000000" points="3069.1539,-544.4814 3072.026,-554.6795 3076.1404,-544.9162 3069.1539,-544.4814"/>
</g>
<!-- lvm2&#45;&gt;thin&#45;provisioning&#45;tools -->
<g id="edge47" class="edge">
<title>lvm2&#45;&gt;thin&#45;provisioning&#45;tools</title>
<path fill="none" stroke="#000000" d="M3123.1873,-444.3441C3137.9789,-434.3976 3154.1057,-423.5532 3169.3401,-413.3089"/>
<polygon fill="#000000" stroke="#000000" points="3171.3524,-416.1735 3177.6977,-407.6889 3167.4463,-410.3647 3171.3524,-416.1735"/>
</g>
<!-- pango&#45;&gt;cairo -->
<g id="edge48" class="edge">
<title>pango&#45;&gt;cairo</title>
<path fill="none" stroke="#000000" d="M915.6018,-443.6851C911.0694,-432.3296 906.5144,-419.7149 903.2447,-407.8133 894.1516,-374.7142 888.0677,-336.456 884.3008,-307.0717"/>
<polygon fill="#000000" stroke="#000000" points="887.765,-306.5659 883.0639,-297.0712 880.818,-307.4252 887.765,-306.5659"/>
</g>
<!-- pango&#45;&gt;fontconfig -->
<g id="edge49" class="edge">
<title>pango&#45;&gt;fontconfig</title>
<path fill="none" stroke="#000000" d="M871.8143,-444.9983C856.3157,-434.141 840.3406,-421.4571 827.2447,-407.8133 799.852,-379.2743 812.2054,-354.7332 779.2447,-332.86 700.7079,-280.7417 648.0052,-350.1295 570.2447,-296.86 534.8241,-272.5952 511.2164,-229.1729 497.2699,-195.5399"/>
<polygon fill="#000000" stroke="#000000" points="500.3776,-193.8842 493.4202,-185.8939 493.8762,-196.4789 500.3776,-193.8842"/>
</g>
<!-- pango&#45;&gt;freetype -->
<g id="edge50" class="edge">
<title>pango&#45;&gt;freetype</title>
<path fill="none" stroke="#000000" d="M834.7881,-447.2663C814.6278,-436.9219 794.817,-423.9077 779.2447,-407.8133 753.9351,-381.6549 775.1663,-354.9594 746.2447,-332.86 660.541,-267.3722 610.6202,-324.0544 506.2447,-296.86 371.0945,-261.6473 291.6752,-300.7818 212.2447,-185.9066 191.6887,-156.1778 202.0984,-115.6434 216.1716,-84.4449"/>
<polygon fill="#000000" stroke="#000000" points="219.4893,-85.6183 220.6266,-75.0847 213.1687,-82.61 219.4893,-85.6183"/>
</g>
<!-- pango&#45;&gt;libpng -->
<g id="edge53" class="edge">
<title>pango&#45;&gt;libpng</title>
<path fill="none" stroke="#000000" d="M907.6054,-443.7955C881.191,-404.7189 839.9934,-347.2046 817.2447,-332.86 753.3873,-292.5935 698.6329,-355.6266 651.2447,-296.86 630.3338,-270.9281 632.1334,-249.1919 651.2447,-221.9066 678.1045,-183.5589 715.6531,-217.4569 750.2447,-185.9066 779.7185,-159.0243 797.8914,-117.1466 808.3085,-84.7181"/>
<polygon fill="#000000" stroke="#000000" points="811.7077,-85.5714 811.2963,-74.9845 805.0159,-83.5172 811.7077,-85.5714"/>
</g>
<!-- pango&#45;&gt;pixman -->
<g id="edge54" class="edge">
<title>pango&#45;&gt;pixman</title>
<path fill="none" stroke="#000000" d="M1135.9399,-464.4367C1268.2042,-451.369 1419.7207,-431.5195 1440.2447,-407.8133 1494.5633,-345.0729 1431.2847,-249.2083 1384.1578,-193.2826"/>
<polygon fill="#000000" stroke="#000000" points="1386.7938,-190.9798 1377.6291,-185.6639 1381.4784,-195.5348 1386.7938,-190.9798"/>
</g>
<!-- pango&#45;&gt;util&#45;macros -->
<g id="edge55" class="edge">
<title>pango&#45;&gt;util&#45;macros</title>
<path fill="none" stroke="#000000" d="M1150.6476,-470.5312C1274.3076,-460.7392 1414.2024,-442.2845 1465.2447,-407.8133 1584.1692,-327.4981 1661.4324,-236.6777 1592.2447,-110.9533 1585.5395,-98.7688 1575.866,-88.3218 1564.9254,-79.4532"/>
<polygon fill="#000000" stroke="#000000" points="1566.8451,-76.5168 1556.7593,-73.2722 1562.6204,-82.0982 1566.8451,-76.5168"/>
</g>
<!-- pango&#45;&gt;fribidi -->
<g id="edge51" class="edge">
<title>pango&#45;&gt;fribidi</title>
<path fill="none" stroke="#000000" d="M812.7663,-449.3465C760.3559,-435.3342 698.7488,-418.8631 645.3862,-404.5962"/>
<polygon fill="#000000" stroke="#000000" points="646.087,-401.1607 635.5223,-401.959 644.2789,-407.9232 646.087,-401.1607"/>
</g>
<!-- pango&#45;&gt;harfbuzz -->
<g id="edge52" class="edge">
<title>pango&#45;&gt;harfbuzz</title>
<path fill="none" stroke="#000000" d="M1013.2447,-446.1836C1039.961,-434.6045 1069.8495,-421.6505 1097.2601,-409.7704"/>
<polygon fill="#000000" stroke="#000000" points="1098.6694,-412.9743 1106.4528,-405.7862 1095.8856,-406.5516 1098.6694,-412.9743"/>
</g>
<!-- rrdtool&#45;&gt;cairo -->
<g id="edge58" class="edge">
<title>rrdtool&#45;&gt;cairo</title>
<path fill="none" stroke="#000000" d="M412.5434,-555.1534C337.1414,-503.0628 223.2988,-406.3804 288.2447,-332.86 313.3628,-304.4257 503.9569,-284.443 662.019,-272.5677"/>
<polygon fill="#000000" stroke="#000000" points="662.6682,-276.0292 672.3811,-271.7972 662.1491,-269.0484 662.6682,-276.0292"/>
</g>
<!-- rrdtool&#45;&gt;fontconfig -->
<g id="edge59" class="edge">
<title>rrdtool&#45;&gt;fontconfig</title>
<path fill="none" stroke="#000000" d="M340.009,-557.6839C320.8347,-547.769 302.9655,-535.0546 289.2447,-518.7666 235.5708,-455.05 230.3606,-408.5157 265.2447,-332.86 293.8875,-270.7403 354.9156,-221.7876 404.8194,-189.973"/>
<polygon fill="#000000" stroke="#000000" points="406.7427,-192.8982 413.3602,-184.6242 403.0273,-186.9656 406.7427,-192.8982"/>
</g>
<!-- rrdtool&#45;&gt;freetype -->
<g id="edge60" class="edge">
<title>rrdtool&#45;&gt;freetype</title>
<path fill="none" stroke="#000000" d="M289.7764,-561.1021C241.2651,-549.6484 197.2792,-535.3556 179.2447,-518.7666 81.3479,-428.7165 110.4406,-351.3049 141.2447,-221.9066 153.4433,-170.6644 184.1774,-118.7317 208.7431,-83.0892"/>
<polygon fill="#000000" stroke="#000000" points="211.6506,-85.0388 214.5196,-74.8398 205.9166,-81.0237 211.6506,-85.0388"/>
</g>
<!-- rrdtool&#45;&gt;libpng -->
<g id="edge63" class="edge">
<title>rrdtool&#45;&gt;libpng</title>
<path fill="none" stroke="#000000" d="M324.8525,-558.6959C287.8479,-547.303 255.181,-533.65 243.2447,-518.7666 186.3824,-447.8649 151.9566,-178.9659 212.2447,-110.9533 213.969,-109.0082 440.7001,-81.994 616.7537,-61.2808"/>
<polygon fill="#000000" stroke="#000000" points="617.4247,-64.7261 626.9474,-60.0819 616.6069,-57.774 617.4247,-64.7261"/>
</g>
<!-- rrdtool&#45;&gt;pixman -->
<g id="edge65" class="edge">
<title>rrdtool&#45;&gt;pixman</title>
<path fill="none" stroke="#000000" d="M748.9205,-572.511C916.9614,-558.9399 1114.3209,-539.6486 1197.2447,-518.7666 1322.2573,-487.2857 1393.6136,-514.9962 1465.2447,-407.8133 1511.4469,-338.6802 1488.891,-292.0546 1444.2447,-221.9066 1436.8425,-210.2763 1426.883,-199.9119 1416.0788,-190.8968"/>
<polygon fill="#000000" stroke="#000000" points="1418.1005,-188.0333 1408.087,-184.572 1413.7565,-193.5223 1418.1005,-188.0333"/>
</g>
<!-- rrdtool&#45;&gt;util&#45;macros -->
<g id="edge66" class="edge">
<title>rrdtool&#45;&gt;util&#45;macros</title>
<path fill="none" stroke="#000000" d="M785.3451,-582.219C988.7568,-572.5121 1233.3443,-553.8741 1331.2447,-518.7666 1482.6872,-464.4587 1549.9655,-443.0026 1617.2447,-296.86 1651.799,-221.8019 1662.2987,-181.4804 1619.2447,-110.9533 1611.1323,-97.6642 1599.7657,-86.6778 1586.9483,-77.6216"/>
<polygon fill="#000000" stroke="#000000" points="1588.6112,-74.5257 1578.3356,-71.9443 1584.7586,-80.3702 1588.6112,-74.5257"/>
</g>
<!-- rrdtool&#45;&gt;fribidi -->
<g id="edge61" class="edge">
<title>rrdtool&#45;&gt;fribidi</title>
<path fill="none" stroke="#000000" d="M479.048,-554.5998C486.8696,-516.8679 498.9353,-458.6624 507.4081,-417.7889"/>
<polygon fill="#000000" stroke="#000000" points="510.8773,-418.296 509.4801,-407.7938 504.0231,-416.8751 510.8773,-418.296"/>
</g>
<!-- rrdtool&#45;&gt;harfbuzz -->
<g id="edge62" class="edge">
<title>rrdtool&#45;&gt;harfbuzz</title>
<path fill="none" stroke="#000000" d="M772.4249,-577.7534C947.6976,-566.3439 1139.8683,-547.4913 1169.2447,-518.7666 1195.3082,-493.2813 1198.5087,-451.1422 1196.0788,-418.2616"/>
<polygon fill="#000000" stroke="#000000" points="1199.5299,-417.5748 1195.1139,-407.9442 1192.5603,-418.2267 1199.5299,-417.5748"/>
</g>
<!-- rrdtool&#45;&gt;pango -->
<g id="edge64" class="edge">
<title>rrdtool&#45;&gt;pango</title>
<path fill="none" stroke="#000000" d="M611.7511,-558.4262C669.4593,-544.537 736.0951,-528.4992 793.608,-514.657"/>
<polygon fill="#000000" stroke="#000000" points="794.5911,-518.0204 803.4945,-512.2775 792.9531,-511.2147 794.5911,-518.0204"/>
</g>
<!-- thin&#45;provisioning&#45;tools&#45;&gt;libaio -->
<g id="edge67" class="edge">
<title>thin&#45;provisioning&#45;tools&#45;&gt;libaio</title>
<path fill="none" stroke="#000000" d="M3154.6601,-333.3908C3131.3405,-322.4273 3105.7006,-310.3729 3082.0073,-299.2337"/>
<polygon fill="#000000" stroke="#000000" points="3083.2236,-295.9381 3072.6847,-294.8508 3080.2453,-302.2729 3083.2236,-295.9381"/>
</g>
</g>
</svg>
